<svg xmlns="http://www.w3.org/2000/svg" xmlns:xlink="http://www.w3.org/1999/xlink"><defs><symbol viewBox="0 0 1238 1116" id="3开发中">
    <!-- Generator: Sketch 60.1 (88133) - https://sketch.com -->
    <title>3开发中</title>
    <desc>Created with Sketch.</desc>
    <defs>
        
        
        
        
        
        
        
        
        
        
        
        
        
        <filter x="-6.2%" y="-31.4%" width="112.4%" height="162.8%" filterUnits="objectBoundingBox" id="3开发中_filter-14">
            <feGaussianBlur stdDeviation="9" in="SourceGraphic"></feGaussianBlur>
        </filter>
        
    </defs>
    <g id="3开发中_页面-1" stroke="none" stroke-width="1" fill="none" fill-rule="evenodd">
        <g id="3开发中_画板备份" transform="translate(-3051.000000, -358.000000)">
            <g id="3开发中_3开发中..." transform="translate(3051.000000, 358.000000)">
                <rect id="3开发中_矩形备份-21" fill="#F6F6F6" x="0" y="0" width="1238" height="1116" />
                <text id="3开发中_开发中…" font-family="PingFangSC-Medium, PingFang SC" font-size="48" font-weight="400" fill="#5480E5">
                    <tspan x="523" y="955">开发中…</tspan>
                </text>
                <g id="3开发中_编组-4备份-6" transform="translate(148.000000, 129.000000)">
                    <g id="3开发中_编组-14" opacity="0.352608817" transform="translate(123.000000, 129.000000)">
                        <polygon id="3开发中_矩形" fill="url(#3开发中_linearGradient-1)" points="-2.20268248e-13 194.199911 65.1873801 9.09494702e-13 65.1873801 194.199911" />
                        <polygon id="3开发中_矩形备份-12" fill="url(#3开发中_linearGradient-2)" points="63.1873801 0.199911087 152 127 139.578533 160.122877 63.1873801 194.199911" />
                    </g>
                    <g id="3开发中_编组-14备份-5" transform="translate(512.000000, 124.000000)">
                        <polygon id="3开发中_矩形" fill="url(#3开发中_linearGradient-3)" points="-3.91928555e-13 131.831855 100.92048 2 92 159" />
                        <polygon id="3开发中_矩形备份-12" fill="url(#3开发中_linearGradient-4)" points="100.92048 0 252 174 92 159.640023" />
                    </g>
                    <g id="3开发中_编组-14备份-9" transform="translate(690.000000, 260.000000)">
                        <polygon id="3开发中_矩形" fill="url(#3开发中_linearGradient-5)" points="1.03739239e-12 131.831855 73 2 66.5474442 159" />
                        <polygon id="3开发中_矩形备份-12" fill="url(#3开发中_linearGradient-6)" points="73.4673478 0 183 174 67 159.640023" />
                    </g>
                    <g id="3开发中_编组-24" opacity="0.652297247" transform="translate(336.000000, 0.000000)">
                        <g id="3开发中_编组-23" transform="translate(0.000000, 87.000998)">
                            <path d="M41.5999769,10.9990016 L106.407312,10.9990016 L106.407312,40.2100015 L106.407312,66.583486 L112.579439,107.380182 L150,233.31403 C123.383172,247.770678 97.8518025,254.999002 73.4058916,254.999002 C48.9599808,254.999002 24.4913502,247.770678 0,233.31403 L33.8848181,107.380182 L41.5999769,65.8599476 L41.5999769,39.4524941 L41.5999769,10.9990016 Z" id="3开发中_矩形" fill="url(#3开发中_linearGradient-7)" />
                            <ellipse id="3开发中_椭圆形" fill="#E1E7FF" cx="75" cy="10.9990016" rx="33" ry="10" />
                            <path d="M42,48.9990016 C42,54.5218491 56.326888,58.9990016 74,58.9990016 C91.673112,58.9990016 106,54.5218491 106,48.9990016" id="3开发中_路径" stroke="#AEACEB" stroke-width="2" opacity="0.421526228" />
                            <path d="M42,72.9990016 C42,78.5218491 56.326888,82.9990016 74,82.9990016 C91.673112,82.9990016 106,78.5218491 106,72.9990016" id="3开发中_路径" stroke="#AEACEB" stroke-width="2" opacity="0.421526228" />
                            <path d="M36,96.9990016 C36,102.521849 52.5654643,106.999002 73,106.999002 C93.4345357,106.999002 110,102.521849 110,96.9990016" id="3开发中_路径" stroke="#AEACEB" stroke-width="2" opacity="0.421526228" />
                        </g>
                        <g id="3开发中_编组-22" transform="translate(54.000000, 0.000000)">
                            <path d="M26.460902,98 C40.2118764,98 19.819388,66.6644124 51.3592436,56.9468964 C73.9007543,50.0017951 93.2496161,75.6817352 99.450994,59.7196929 C120.05186,6.69407566 152.151166,19.4223547 142.098797,9.19111212 C132.046428,-1.0401305 60.3514975,-4.93361032 26.460902,9.19111212 C6.18672593,17.6408636 0,41.5151636 0,50.0017951 C0,72.6747981 12.7099276,98 26.460902,98 Z" id="3开发中_椭圆形" fill="#E0E8FF" />
                            <path d="M26.1569279,98 C39.7499356,98 19.5917094,70.6448739 50.7692456,62.1617434 C73.0518068,56.0988566 93.2534239,76.0961775 99.3835624,62.1617434 C119.747772,15.8718041 154.600469,12 133.390409,12 C126.837496,12 108.541781,41.8239126 92.5473605,49.1785667 C85.367599,52.4800095 71.08884,32.1225663 60.7095678,35.942769 C55.3160567,37.9279088 34.3797608,41.3258547 26.1569279,55.0682382 C19.9949567,65.3664131 0,50.6840594 0,56.0988566 C0,75.8917791 12.5639202,98 26.1569279,98 Z" id="3开发中_椭圆形备份-7" fill="#D7DDF3" />
                        </g>
                    </g>
                    <g id="3开发中_编组-13" opacity="0.733537946" transform="translate(20.000000, 317.000000)">
                        <polygon id="3开发中_矩形" fill="url(#3开发中_linearGradient-8)" points="78 1 78 270 0 270" />
                        <polygon id="3开发中_矩形备份-11" fill="url(#3开发中_linearGradient-9)" points="78.5442943 0 252 221.039529 113.757033 265.973538 78 270" />
                    </g>
                    <g id="3开发中_编组-13备份" opacity="0.456287202" transform="translate(201.000000, 248.000000)">
                        <path d="M0.25890935,121.274772 C2.66644392,89.2119741 22.4935368,48.78705 59.740188,0 L65,221 L43.4072214,217.517379 C12.2341455,185.418439 -2.14862522,153.33757 0.25890935,121.274772 Z" id="3开发中_矩形" fill="url(#3开发中_linearGradient-10)" />
                        <polygon id="3开发中_矩形备份-11" fill="url(#3开发中_linearGradient-11)" points="60 0 162 90.7384369 143.92612 169.173357 60 223.001243" />
                    </g>
                    <ellipse id="3开发中_椭圆形" fill="url(#3开发中_linearGradient-12)" cx="471" cy="496" rx="471" ry="172" />
                    <g id="3开发中_编组" transform="translate(100.000000, 418.000000)" fill-rule="nonzero">
                        <polygon id="3开发中_路径" fill="#B3CCFF" points="16 48 28 48 28 68 16 68" />
                        <polygon id="3开发中_路径" fill="#A8C4FC" points="23.0004343 52 46 52 34.5006514 31.999564 23.0004343 12 11.5002171 31.999564 0 52" />
                        <polygon id="3开发中_路径" fill="#B9D1FF" points="22 42 42 42 32 25 22 8 12 25 2 42" />
                        <polygon id="3开发中_路径" fill="#CADDFD" points="23 30 40 30 31.5 14.9995694 23 0 14.5 14.9995694 6 30" />
                    </g>
                    <g id="3开发中_编组备份-5" opacity="0.576892671" transform="translate(775.000000, 403.000000)" fill-rule="nonzero">
                        <polygon id="3开发中_路径" fill="#B3CCFF" points="16 48 28 48 28 68 16 68" />
                        <polygon id="3开发中_路径" fill="#A8C4FC" points="23.0004343 52 46 52 34.5006514 31.999564 23.0004343 12 11.5002171 31.999564 0 52" />
                        <polygon id="3开发中_路径" fill="#B9D1FF" points="22 42 42 42 32 25 22 8 12 25 2 42" />
                        <polygon id="3开发中_路径" fill="#CADDFD" points="23 30 40 30 31.5 14.9995694 23 0 14.5 14.9995694 6 30" />
                    </g>
                </g>
                <g id="3开发中_编组" transform="translate(404.000000, 330.000000)">
                    <path d="M396,216 L396,144 L355.892727,144 C352.710073,130.705317 347.646291,117.932905 340.854545,106.069091 L368.738182,78.1690908 L317.830909,27.2618181 L290.52,54.5727273 C278.546385,47.3042559 265.566936,41.8400951 252,38.3563635 L252,0 L180,0 L180,38.3563635 C166.254545,41.8909089 153.327273,47.3890908 141.48,54.5727273 L114.169091,27.2618181 L63.2618181,78.1690908 L91.1454546,106.069091 C84.353709,117.932905 79.289927,130.705317 76.1072727,144 L36,144 L36,216 L77.3345454,216 C80.8854546,228.861818 86.1709089,240.987273 92.9454546,252.147273 L63.2618181,281.830909 L114.169091,332.738182 L144.441818,302.465455 C155.5891,308.858607 167.550397,313.713584 180,316.898182 L180,360 L252,360 L252,316.898182 C264.6,313.658182 276.545455,308.798182 287.558182,302.465455 L317.830909,332.738182 L368.738182,281.830909 L339.054545,252.147273 C345.901521,240.876406 351.155035,228.711823 354.665455,216 L396,216 Z M216,244.816363 C180.224257,244.771267 151.236063,215.775753 151.2,180 C151.236063,144.224247 180.224257,115.228733 216,115.183637 C251.775743,115.228733 280.763937,144.224247 280.8,180 C280.763937,215.775753 251.775743,244.771267 216,244.816363 Z" id="3开发中_形状" fill="url(#3开发中_linearGradient-13)" fill-rule="nonzero" />
                    <ellipse id="3开发中_椭圆形备份-20" fill="#D2E0F9" opacity="0.517020089" filter="url(#3开发中_filter-14)" cx="218" cy="371" rx="218" ry="43" />
                    <path d="M394,219.2 L394,148.8 L354.784,148.8 C351.672071,135.800754 346.720818,123.312174 340.08,111.712 L367.344,84.4319999 L317.568,34.6559999 L290.864,61.36 C279.156465,54.2530502 266.465448,48.9103152 253.2,45.5039998 L253.2,8 L182.8,8 L182.8,45.5039998 C169.36,48.9599998 156.72,54.3359999 145.136,61.36 L118.432,34.6559999 L68.6559999,84.4319999 L95.9200001,111.712 C89.2791821,123.312174 84.3279286,135.800754 81.216,148.8 L42,148.8 L42,219.2 L82.4159999,219.2 C85.8880001,231.776 91.0559998,243.632 97.6800001,254.544 L68.6559999,283.568 L118.432,333.344 L148.032,303.744 C158.931564,309.995082 170.627055,314.742171 182.8,317.856 L182.8,360 L253.2,360 L253.2,317.856 C265.52,314.688 277.2,309.936 287.968,303.744 L317.568,333.344 L367.344,283.568 L338.32,254.544 C345.01482,243.523597 350.15159,231.629338 353.584,219.2 L394,219.2 Z M218,247.376 C183.019273,247.331906 154.675262,218.980737 154.64,184 C154.675262,149.019263 183.019273,120.668094 218,120.624 C252.980727,120.668094 281.324738,149.019263 281.36,184 C281.324738,218.980737 252.980727,247.331906 218,247.376 Z" id="3开发中_形状备份" fill="url(#3开发中_linearGradient-15)" fill-rule="nonzero" />
                </g>
                <g id="3开发中_编组备份-2" transform="translate(591.500000, 591.000000) scale(-1, 1) translate(-591.500000, -591.000000) translate(544.000000, 474.000000)" fill-rule="nonzero">
                    <path d="M63.0566037,2 C60.3396227,3.54545452 58.4716981,4.87012986 57.2830189,6.1948052 C56.4339622,7.07792218 56.4339622,9.72727262 54.3962264,12.1558441 C53.716981,13.0389611 52.6981131,14.8051948 51.6792453,17.6753247 L51.6792453,18.3376622 C51.6792453,18.5584414 51.6792453,18.7792206 51.8490566,19.2207792 L52.8679246,19.2207792 C52.8679246,20.1038962 52.8679246,20.9870129 52.6981133,21.8701299 C52.528302,22.7532468 52.0188679,23.4155844 51.3396226,24.0779219 C51.1698113,25.4025973 51,26.2857143 51,26.9480518 C51,27.6103894 51.3396226,27.8311688 51.8490566,28.051948 L57.7924528,28.051948 L57.7924528,36 L66.9622641,36 L66.9622641,23.6363636 L69,8.62337646 L63.0566037,2 Z" id="3开发中_路径" fill="#FFD2D2" />
                    <path d="M56.0199572,0.822784849 C56.3610205,-1.02848106 65.2286677,0.822784849 65.3991996,0.822784849 C72.2204666,0.822784849 73.7552518,4.52531647 74.6079101,6.74683548 C75.6311001,10.079114 74.6079101,14.7072786 72.049935,17.8544304 L67.9571747,26 C65.9107945,25.8148734 64.7170728,25.6297469 64.7170728,25.6297467 L64.7170728,22.6677215 L66.9339846,18.2246835 C66.9339846,17.1139239 65.9107945,16.3734175 64.034946,16.3734177 C61.8180342,16.3734177 67.2750479,9.7088607 63.523351,8.22784809 C59.7716542,6.74683548 55.6788939,2.67405056 56.0199572,0.822784849 L56.0199572,0.822784849 Z" id="3开发中_路径" fill="#050237" />
                    <polygon id="3开发中_路径" fill="#000000" points="0 44.6875 15.4411766 40 28 61.875 14.4117647 65" />
                    <path d="M6.83711208,54.5014671 L13.658645,51.4206456 L16.2167199,58.2424648 C20.4801779,69.2453989 23.0382528,74.5268073 23.8909445,74.5268071 C24.7436362,74.5268069 25.5963276,71.0058683 26.6621922,64.1840491 L39.8789121,72.5462791 L28.3675754,92.5716191 C25.1699819,94.772206 21.7592153,94.772206 18.1352761,92.5716191 L4.70538317,60.4430514 L3,60.0029342 L3.42634574,50.3203521 C3.42634574,49.4401173 4.06586434,49 5.13172891,49 C6.19759347,49 6.83711208,49.4401173 6.83711208,50.3203521 L6.83711208,54.5014671 L6.83711208,54.5014671 Z M75.0524412,63.3038143 C82.3003198,59.1226993 87.4164696,59.7828755 90.8272361,65.2843426 C94.4511756,71.4459856 93.5984839,90.1509737 87.8428153,121.839424 C84.005703,124.480128 81.4476281,124.700187 79.955418,122.4996 C78.2500349,119.858896 78.4632077,117.878368 81.0212826,116.117898 C82.0871472,116.117898 82.0871472,111.276607 81.0212826,101.373966 C85.0715678,89.2707387 83.1530117,76.5073351 75.0524412,63.3038143 Z" id="3开发中_形状" fill="#FFD2D2" />
                    <path d="M75.241532,212.735158 C80.8117141,210.874101 83.3825674,212.528374 82.9540919,217.90476 C76.5269587,227.210045 73.5276299,231.759295 73.5276299,231.759295 C70.3140634,233.413568 67.9574478,233.413568 66.6720211,231.759295 C65.8150699,230.725375 64.5296433,229.691454 64.1011678,228.864318 C63.6726923,227.210045 64.743881,224.93542 64.743881,223.694715 C64.743881,222.247227 68.1716853,218.525113 75.241532,212.735158 L75.241532,212.735158 Z" id="3开发中_路径" fill="#000000" />
                    <path d="M39.0737,183.287353 C39.9326601,188.271903 41.2211,203.905264 43.1537599,229.960866 C45.0864197,231.320289 46.8043398,232 48.7369997,232 C50.4549195,232 52.3875796,231.320289 54.5349794,229.960866 L54.5349794,162.669443 L57.7560794,140.012398 L60.3329592,140.012398 C59.6887393,154.739477 59.6887393,165.388288 60.3329592,171.50569 C60.977179,177.623092 62.265619,195.975299 63.7687992,226.335739 L69.3520389,226.335739 C71.499439,226.335739 73.2173588,225.882598 74.2910589,224.749746 L79,106 L38,110.78481 C38,154.059766 38.21474,178.302804 39.0737,183.287353 Z" id="3开发中_路径" fill="#3484FE" />
                    <path d="M35.6382977,85.7133443 L25,70.7553468 C31.5957447,49.638174 39.2553191,37.9797349 47.9787232,36 L78.6170213,36 C89.0425533,49.1982329 94.3617022,59.7568195 95,67.6757591 L88.8297871,70.7553468 L79.255319,70.7553468 L79.255319,92.9723724 C79.255319,110.942421 77.7659573,114.783627 74.1489362,119.403009 C68.6170213,126.222096 53.2978724,123.80242 49.680851,122.482597 C46.0638297,121.162773 36.9148935,114.529487 36.9148935,114.089545 C36.9148935,113.869575 38.1914892,100.451371 40.7446807,74.2748757 L35.6382977,85.7133443 Z" id="3开发中_路径" fill="#FFFFFF" />
                    <path d="M32.8190493,221.5583 C30.4506583,222.002646 28.512884,222.669166 27.4363426,223.113512 C25.7138765,223.780032 22.0536362,226.001764 22.0536362,228.667843 C22.0536362,231.333921 24.2067189,232.444788 25.7138765,232.889134 C26.5751097,233.33348 28.0822675,233.555653 30.0200418,234 L53.2733345,234 C53.4886427,233.111307 53.703951,232.000441 53.9192594,231.111748 C54.1345676,230.223055 53.9192594,229.112189 53.2733345,228.001323 C52.4121014,227.556977 51.7661767,226.890457 51.5508684,226.223938 C51.120252,225.335245 51.3355602,222.891339 51.3355602,222.891339 C45.9528536,220.447434 39.9242222,220.225261 32.8190493,221.5583 L32.8190493,221.5583 Z M18.8419545,64.7747395 L13.0286313,66.329952 L7,54.110425 L14.1051727,51 L21.8562701,64.1082197 L18.8419545,64.7747395 Z" id="3开发中_形状" fill="#000000" />
                </g>
            </g>
        </g>
    </g>
</symbol><linearGradient x1="50%" y1="0%" x2="50%" y2="86.0706991%" id="3开发中_linearGradient-1">
            <stop stop-color="#D2DEFB" offset="0%" />
            <stop stop-color="#F3F4F8" offset="100%" />
        </linearGradient><linearGradient x1="50%" y1="0%" x2="50%" y2="43.9096274%" id="3开发中_linearGradient-2">
            <stop stop-color="#E5ECF8" offset="0%" />
            <stop stop-color="#F3F4F6" offset="100%" />
        </linearGradient><linearGradient x1="50%" y1="0%" x2="50%" y2="86.0706991%" id="3开发中_linearGradient-3">
            <stop stop-color="#D8E3FB" offset="0%" />
            <stop stop-color="#F3F4F8" offset="100%" />
        </linearGradient><linearGradient x1="50%" y1="0%" x2="50%" y2="43.9096274%" id="3开发中_linearGradient-4">
            <stop stop-color="#E5ECF8" offset="0%" />
            <stop stop-color="#F3F4F6" offset="100%" />
        </linearGradient><linearGradient x1="50%" y1="0%" x2="50%" y2="86.0706991%" id="3开发中_linearGradient-5">
            <stop stop-color="#D8E3FB" offset="0%" />
            <stop stop-color="#F3F4F8" offset="100%" />
        </linearGradient><linearGradient x1="50%" y1="0%" x2="50%" y2="43.9096274%" id="3开发中_linearGradient-6">
            <stop stop-color="#E5ECF8" offset="0%" />
            <stop stop-color="#F3F4F6" offset="100%" />
        </linearGradient><linearGradient x1="50%" y1="0%" x2="50%" y2="100%" id="3开发中_linearGradient-7">
            <stop stop-color="#D4E0FC" offset="0%" />
            <stop stop-color="#E0E8FE" offset="100%" />
        </linearGradient><linearGradient x1="50%" y1="0%" x2="50%" y2="88.0272486%" id="3开发中_linearGradient-8">
            <stop stop-color="#D0DDFC" offset="0%" />
            <stop stop-color="#F3F4F8" offset="100%" />
        </linearGradient><linearGradient x1="50%" y1="0%" x2="50%" y2="100%" id="3开发中_linearGradient-9">
            <stop stop-color="#E8EDF8" offset="0%" />
            <stop stop-color="#F4F5F6" offset="100%" />
        </linearGradient><linearGradient x1="50%" y1="0%" x2="50%" y2="88.0272486%" id="3开发中_linearGradient-10">
            <stop stop-color="#D0DDFC" offset="0%" />
            <stop stop-color="#F3F4F8" offset="100%" />
        </linearGradient><linearGradient x1="50%" y1="0%" x2="50%" y2="100%" id="3开发中_linearGradient-11">
            <stop stop-color="#E8EDF8" offset="0%" />
            <stop stop-color="#F4F5F6" offset="100%" />
        </linearGradient><linearGradient x1="51.503123%" y1="45.4855527%" x2="50%" y2="54.8995405%" id="3开发中_linearGradient-12">
            <stop stop-color="#DBE7FC" offset="0%" />
            <stop stop-color="#F3F5F6" offset="100%" />
        </linearGradient><linearGradient x1="50%" y1="0%" x2="54.2985536%" y2="89.7432771%" id="3开发中_linearGradient-13">
            <stop stop-color="#7DA0EF" offset="0%" />
            <stop stop-color="#DEE8F9" offset="100%" />
        </linearGradient><linearGradient x1="50%" y1="0%" x2="54.2985536%" y2="89.7432771%" id="3开发中_linearGradient-15">
            <stop stop-color="#9EBBF8" offset="0%" />
            <stop stop-color="#EAF0F8" offset="100%" />
        </linearGradient><symbol viewBox="0 0 1238 1116" id="403">
    <!-- Generator: Sketch 60.1 (88133) - https://sketch.com -->
    <title>编组 26</title>
    <desc>Created with Sketch.</desc>
    <defs>
        
        
        
        
        
        
        
        
        
        
        
        
        
        
        
        <filter x="-3.6%" y="-24.0%" width="107.1%" height="148.0%" filterUnits="objectBoundingBox" id="403_filter-16">
            <feGaussianBlur stdDeviation="4" in="SourceGraphic"></feGaussianBlur>
        </filter>
        <filter x="-4.5%" y="-34.6%" width="109.0%" height="169.2%" filterUnits="objectBoundingBox" id="403_filter-17">
            <feGaussianBlur stdDeviation="3" in="SourceGraphic"></feGaussianBlur>
        </filter>
    </defs>
    <g id="403_页面-1" stroke="none" stroke-width="1" fill="none" fill-rule="evenodd">
        <g id="403_画板" transform="translate(-5918.000000, -1758.000000)">
            <g id="403_编组-26" transform="translate(5918.000000, 1758.000000)">
                <g id="403_编组-20" transform="translate(0.000000, 0.000000)">
                    <rect id="403_矩形备份-27" fill="#F5F5F5" opacity="0.846586682" x="0" y="1.13686838e-13" width="1238" height="1116" />
                    <text id="403_抱歉，您无权访问该页面～" font-family="PingFangSC-Medium, PingFang SC" font-size="48" font-weight="400" fill="#5480E5">
                        <tspan x="326" y="947">抱歉，您无权访问该页面～</tspan>
                    </text>
                    <g id="403_编组-14备份-39" transform="translate(230.000000, 384.000000)">
                        <polygon id="403_矩形" fill="url(#403_linearGradient-1)" points="-1.70352621e-12 8.19991109 41.1873801 1.16529009e-12 41.1873801 194.199911 -1.70352621e-12 200.199911" />
                        <polygon id="403_矩形备份-12" fill="url(#403_linearGradient-2)" points="39.1873801 0.199911087 115.578533 7.92649192 115.578533 160.122877 39.1873801 194.199911" />
                    </g>
                    <g id="403_编组-14备份-40" transform="translate(668.000000, 304.000000)">
                        <polygon id="403_矩形" fill="url(#403_linearGradient-3)" points="-1.70352621e-12 24.2215639 60 6.25277607e-13 60 217.00964 -1.70352621e-12 222.199911" />
                        <polygon id="403_矩形备份-12" fill="url(#403_linearGradient-4)" points="60 0 114.59369 11.8192235 116 188.897369 60 217.94555" />
                    </g>
                    <g id="403_编组-24备份-16" opacity="0.30594308" transform="translate(498.000000, 142.000000)">
                        <g id="403_编组-23" transform="translate(0.000000, 87.000998)">
                            <path d="M41.5999769,10.9990016 L106.407312,10.9990016 L106.407312,40.2100015 L106.407312,66.583486 L112.579439,107.380182 L150,233.31403 C123.383172,247.770678 97.8518025,254.999002 73.4058916,254.999002 C48.9599808,254.999002 24.4913502,247.770678 0,233.31403 L33.8848181,107.380182 L41.5999769,65.8599476 L41.5999769,39.4524941 L41.5999769,10.9990016 Z" id="403_矩形" fill="url(#403_linearGradient-5)" />
                            <ellipse id="403_椭圆形" fill="#E1E7FF" cx="75" cy="10.9990016" rx="33" ry="10" />
                            <path d="M42,48.9990016 C42,54.5218491 56.326888,58.9990016 74,58.9990016 C91.673112,58.9990016 106,54.5218491 106,48.9990016" id="403_路径" stroke="#AEACEB" stroke-width="2" opacity="0.421526228" />
                            <path d="M42,72.9990016 C42,78.5218491 56.326888,82.9990016 74,82.9990016 C91.673112,82.9990016 106,78.5218491 106,72.9990016" id="403_路径" stroke="#AEACEB" stroke-width="2" opacity="0.421526228" />
                            <path d="M36,96.9990016 C36,102.521849 52.5654643,106.999002 73,106.999002 C93.4345357,106.999002 110,102.521849 110,96.9990016" id="403_路径" stroke="#AEACEB" stroke-width="2" opacity="0.421526228" />
                        </g>
                        <g id="403_编组-22" transform="translate(54.000000, 0.000000)">
                            <path d="M26.460902,98 C40.2118764,98 19.819388,66.6644124 51.3592436,56.9468964 C73.9007543,50.0017951 93.2496161,75.6817352 99.450994,59.7196929 C120.05186,6.69407566 152.151166,19.4223547 142.098797,9.19111212 C132.046428,-1.0401305 60.3514975,-4.93361032 26.460902,9.19111212 C6.18672593,17.6408636 0,41.5151636 0,50.0017951 C0,72.6747981 12.7099276,98 26.460902,98 Z" id="403_椭圆形" fill="#E0E8FF" />
                            <path d="M26.1569279,98 C39.7499356,98 19.5917094,70.6448739 50.7692456,62.1617434 C73.0518068,56.0988566 93.2534239,76.0961775 99.3835624,62.1617434 C119.747772,15.8718041 154.600469,12 133.390409,12 C126.837496,12 108.541781,41.8239126 92.5473605,49.1785667 C85.367599,52.4800095 71.08884,32.1225663 60.7095678,35.942769 C55.3160567,37.9279088 34.3797608,41.3258547 26.1569279,55.0682382 C19.9949567,65.3664131 0,50.6840594 0,56.0988566 C0,75.8917791 12.5639202,98 26.1569279,98 Z" id="403_椭圆形备份-7" fill="#D7DDF3" />
                        </g>
                    </g>
                    <g id="403_编组-24备份-17" opacity="0.30594308" transform="translate(806.000000, 308.000000)">
                        <g id="403_编组-23" transform="translate(0.000000, 55.000000)">
                            <path d="M26.6239852,7.29858369 L68.1006794,7.29858369 L68.1006794,25.6992135 L68.1006794,42.3124321 L72.0508407,68.0111383 L96,147.339546 C78.96523,156.446096 62.6251536,160.999371 46.9797706,160.999371 C31.3343877,160.999371 15.6744641,156.446096 0,147.339546 L21.6862836,68.0111383 L26.6239852,41.8566599 L26.6239852,25.2220436 L26.6239852,7.29858369 Z" id="403_矩形" fill="url(#403_linearGradient-6)" />
                            <ellipse id="403_椭圆形" fill="#E1E7FF" cx="48" cy="7.29858369" rx="21.12" ry="6.2992126" />
                            <path d="M26.88,31.2355916 C26.88,34.7145506 36.0492083,37.5348042 47.36,37.5348042 C58.6707917,37.5348042 67.84,34.7145506 67.84,31.2355916" id="403_路径" stroke="#AEACEB" stroke-width="2" opacity="0.421526228" />
                            <path d="M26.88,46.3537018 C26.88,49.8326609 36.0492083,52.6529144 47.36,52.6529144 C58.6707917,52.6529144 67.84,49.8326609 67.84,46.3537018" id="403_路径" stroke="#AEACEB" stroke-width="2" opacity="0.421526228" />
                            <path d="M23.04,61.471812 C23.04,64.9507711 33.6418971,67.7710246 46.72,67.7710246 C59.7981029,67.7710246 70.4,64.9507711 70.4,61.471812" id="403_路径" stroke="#AEACEB" stroke-width="2" opacity="0.421526228" />
                        </g>
                        <g id="403_编组-22" transform="translate(34.000000, 0.000000)">
                            <path d="M16.9055763,62 C25.690921,62 12.6623868,42.1754446 32.8128501,36.0276283 C47.2143708,31.6337887 59.5761436,47.8802814 63.538135,37.7818465 C76.6997993,4.23502746 97.2076891,12.2876122 90.7853424,5.81478522 C84.3629957,-0.658041746 38.5579012,-3.12126367 16.9055763,5.81478522 C3.95263045,11.1605463 0,26.2646953 0,31.6337887 C0,45.9779335 8.12023153,62 16.9055763,62 Z" id="403_椭圆形" fill="#E0E8FF" />
                            <path d="M16.7113706,62 C25.3957922,62 12.5169254,44.6936957 32.4359069,39.3268173 C46.6719877,35.4911134 59.5785764,48.1424797 63.4950538,39.3268173 C76.5055212,10.0413455 98.772522,7.59183673 85.2216501,7.59183673 C81.0350671,7.59183673 69.3461377,26.4600263 59.1274803,31.1129708 C54.5404104,33.2016387 45.41787,20.3224399 38.7866683,22.7393029 C35.340814,23.9952076 21.9648472,26.1449285 16.7113706,34.8390895 C12.7745556,41.3542613 0,32.0654254 0,35.4911134 C0,48.0131664 8.02694899,62 16.7113706,62 Z" id="403_椭圆形备份-7" fill="#D7DDF3" />
                        </g>
                    </g>
                    <g id="403_编组-14备份-41" transform="translate(902.000000, 422.000000)">
                        <polygon id="403_矩形" fill="url(#403_linearGradient-7)" points="0 8.19172301 36 0 36 194.005991 0 200" />
                        <polygon id="403_矩形备份-12" fill="url(#403_linearGradient-8)" points="36 0 104 7.72658083 104 159.922966 36 194" />
                    </g>
                    <g id="403_编组-13备份-20" transform="translate(330.000000, 244.000000)">
                        <polygon id="403_矩形" fill="url(#403_linearGradient-9)" points="-1.93267624e-12 9.6708526 38.7119453 0.739480015 38.7119453 290.108615 1.12888741 291.806473" />
                        <polygon id="403_矩形备份-11" fill="url(#403_linearGradient-10)" points="39.1288874 -1.70530257e-12 66.102666 12.2505005 66.102666 285.782276 38.7119453 290.108615" />
                    </g>
                    <g id="403_编组-13备份-21" opacity="0.444196429" transform="translate(398.000000, 366.000000)">
                        <polygon id="403_矩形" fill="url(#403_linearGradient-11)" points="0.102666016 0.0843606028 19.4545012 0.0843606028 24.7119453 288.108615 3.12888741 283.569794" />
                        <polygon id="403_矩形备份-11" fill="url(#403_linearGradient-12)" points="20.4169422 -1.70530257e-12 102.345927 8.09176762 104 220 20.4169422 290" />
                    </g>
                    <g id="403_编组-15备份-10" transform="translate(476.000000, 434.000000)">
                        <polygon id="403_矩形" fill="url(#403_linearGradient-13)" points="0 9.47588708 50 -5.61328761e-13 50 98.2631182 0 98.2631182" />
                        <polygon id="403_矩形备份-13" fill="url(#403_linearGradient-14)" points="50.0132816 1.47792889e-12 115.44161 1.73900532 115.44161 87.9697844 50 98.2631182" />
                    </g>
                    <ellipse id="403_椭圆形备份-22" fill="url(#403_linearGradient-15)" cx="619" cy="656" rx="471" ry="172" />
                    <g id="403_编组-11备份-2" transform="translate(383.000000, 449.000000)">
                        <g id="403_编组-12" fill="#77A0EA" fill-rule="nonzero">
                            <path d="M124.54,192.4 L124.54,148.46 L145.86,148.46 L145.86,113.1 L124.54,113.1 L124.54,3.64 L67.34,3.64 L0,116.22 L0,148.46 L81.38,148.46 L81.38,192.4 L124.54,192.4 Z M81.38,113.1 L44.2,113.1 L66.3,75.14 C71.76,63.96 76.96,53.3 81.9,42.38 L82.94,42.38 C82.42,54.6 81.38,73.32 81.38,85.54 L81.38,113.1 Z M231.92,196.04 C272.74,196.04 300.3,161.72 300.3,97.24 C300.3,33.02 272.74,0 231.92,0 C190.84,0 163.28,32.76 163.28,97.24 C163.28,161.72 190.84,196.04 231.92,196.04 Z M231.92,160.16 C218.14,160.16 206.96,148.2 206.96,97.24 C206.96,46.28 218.14,35.88 231.92,35.88 C245.7,35.88 256.62,46.28 256.62,97.24 C256.62,148.2 245.7,160.16 231.92,160.16 Z M383.5,196.04 C421.98,196.04 455,176.28 455,140.92 C455,116.74 439.14,101.4 417.82,95.16 L417.82,93.86 C438.1,85.28 448.76,71.24 448.76,52.26 C448.76,18.98 422.5,0 382.46,0 C359.58,0 340.34,9.36 322.4,24.18 C325.619455,28.0791175 327.826047,30.7515455 329.019776,32.1972841 C330.750367,34.2932227 377.009627,36.14 380.38,36.14 C394.68,36.14 402.48,43.16 402.48,55.9 C402.48,69.94 392.08,79.82 359.06,79.82 L359.06,112.58 C399.62,112.58 408.46,121.94 408.46,137.8 C408.46,151.32 396.76,158.6 378.82,158.6 C373.975037,158.6 369.638799,158.204205 365.525732,157.221482 C359.91612,155.881195 328.248046,153.909986 326.104663,156.837534 C324.434016,159.119393 321.465795,163.173549 317.2,169 C331.24,185.38 352.82,196.04 383.5,196.04 Z" id="403_403" />
                        </g>
                        <ellipse id="403_椭圆形" fill="#DEEAFF" filter="url(#403_filter-16)" cx="273" cy="207" rx="169" ry="25" />
                        <g id="403_编组-5" transform="translate(7.000000, 55.000000)">
                            <ellipse id="403_椭圆形备份-5" fill="#D7E7FF" filter="url(#403_filter-17)" cx="233" cy="210" rx="100" ry="13" />
                            <g id="403_编组-11备份" transform="translate(176.000000, 175.000000) rotate(49.000000) translate(-176.000000, -175.000000) translate(60.000000, 43.000000)">
                                <g id="403_编组-10" transform="translate(0.000000, 0.000000)">
                                    <g id="403_编组-9" transform="translate(115.933871, 132.407290) scale(-1, 1) rotate(71.000000) translate(-115.933871, -132.407290) translate(5.933871, 47.907290)">
                                        <path d="M28.7625549,160.197955 L28.7625549,165.978872 C43.532687,164.0519 51.8158993,163.088414 53.6121919,163.088414 C56.3066308,163.088414 81.0565968,138.28529 83.8008711,131.874784 C86.5451455,125.464279 102.882881,114.228037 110.090754,114.228037 C114.896003,114.228037 119.728938,111.616104 124.589559,106.392237 C124.38918,87.8317252 120.593965,78.5514695 113.203916,78.5514695 C102.118841,78.5514695 100.144617,78.8681401 89.524374,81.8577855 C78.9041313,84.8474308 74.8803183,88.3376205 69.8037429,90.7688102 C64.7271676,93.2 65.3534336,96 57.5907252,96 C52.4155864,96 44.3819947,98.567702 33.4899502,103.703106 C22.3666278,111.446975 15.3616355,116.590829 12.4749733,119.134669 C9.57571035,121.689613 6.63246685,121.57096 6.63246685,123.863835 C6.63246685,129.581073 7.33666293,131.615507 8.74505508,129.967138 C19.9006157,123.746967 26.5731156,119.568741 28.7625549,117.432459 C30.9519941,115.296178 32.8481206,114.228037 34.4509342,114.228037 C55.1638092,106.730564 65.5202468,104.118631 65.5202468,106.392237 C65.5202468,109.802645 76.8331746,114.72307 72.5496785,123.298927 C69.6940144,129.016165 63.3815188,139.172915 53.6121919,153.769177 L28.7625549,160.197955 Z" id="403_路径-57" fill="#FFFFFF" />
                                        <ellipse id="403_椭圆形" fill="#FFD3BD" cx="23.2509342" cy="164.6" rx="5.6" ry="4.2" />
                                        <ellipse id="403_椭圆形" fill="#FEDCDC" cx="54.0509342" cy="118.4" rx="16.8" ry="11.2" />
                                        <ellipse id="403_椭圆形备份-3" fill="#FEDCDC" cx="60.0237293" cy="114.743136" rx="16.8" ry="4" />
                                        <ellipse id="403_椭圆形" fill="#483E3E" transform="translate(49.850934, 117.000000) rotate(-11.000000) translate(-49.850934, -117.000000) " cx="49.8509342" cy="117" rx="15.4" ry="9.8" />
                                        <path d="M103.479735,79.1571062 C107.95707,75.1253846 131.113025,73.7151052 137.31256,60.852565 C143.512095,47.9900248 152.552253,36.9099339 152.552253,27.3132795 C152.552253,20.91551 152.552253,15.5194337 152.552253,11.1250509 L165.075912,11.1250509 C165.548796,35.8058009 164.742014,49.31731 162.655569,51.6595781 C160.569123,54.0018462 155.958232,60.3060358 148.822897,70.5721469 L148.822897,73.6 C157.25174,75.6185687 162.669412,75.6185687 165.075912,73.6 C168.685663,70.5721469 193.789461,30.5459417 195.952321,30.5459417 C198.115182,30.5459417 205.94766,31.9363519 205.94766,35.1258234 C205.94766,38.3152948 188.699596,81.4425695 180.116263,84.8 C171.532931,88.1574305 132.769225,110.123254 124.589559,106.392237 C120.779204,104.654207 124.941845,97.560814 119.012968,89.0162621 C116.456856,85.3324564 99.0024004,83.1888277 103.479735,79.1571062 Z" id="403_路径-58" fill="#3484FE" />
                                        <path d="M151.516805,8.66860524 C163.009662,3.17327523 169.845133,0.425610228 172.023217,0.425610228 C175.290343,0.425610228 174.952672,8.66860524 174.952672,8.66860524 C174.952672,8.66860524 172.486187,10.2618177 167.553217,13.4482426 L160.905558,13.4482426 L153.759676,11.6072219 L151.516805,8.66860524 Z" id="403_路径-59" fill="#373535" />
                                        <path d="M195.707333,29.0804984 C205.49427,25.9747747 212.055281,25.1983438 215.390366,26.7512057 C218.725452,28.3040675 219.787735,30.3946545 218.577216,33.0229666 L213.359244,36.5474873 L207.38405,36.5474873 L199.280274,33.0229666 L195.707333,29.0804984 Z" id="403_路径-60" fill="#373535" />
                                        <path d="M4.94477902,123.298927 C0.767958689,128.819017 -0.762763403,132.126131 0.352612745,133.22027 C1.46798889,134.314409 3.50076271,134.314409 6.45093418,133.22027 L9.95521135,133.22027 L4.94477902,123.298927 Z" id="403_路径-61" fill="#FFD2BD" />
                                    </g>
                                    <path d="M177.369274,86.0500424 L179.637987,86.0500424 C180.875488,86.0500424 181.700487,84.8500467 181.700487,83.0500424 C181.700487,81.2500507 180.875488,80.0500549 179.637987,80.0500549 L177.369232,80.0500549 C176.337978,71.6500673 171.387972,65.0500424 165.200445,65.0500424 C159.012919,65.0500424 154.06293,71.6500321 153.031659,80.0500549 L150.762988,80.0500549 C149.525487,80.0500549 148.700487,81.2500507 148.700487,83.0500424 C148.700487,84.8500467 149.525487,86.0500424 150.762988,86.0500424 L177.369274,86.0500424 Z" id="403_形状备份-4" fill="#FBEA34" fill-rule="nonzero" transform="translate(165.200487, 75.550042) rotate(-11.000000) translate(-165.200487, -75.550042) " />
                                </g>
                                <path d="M127.731274,149.417693 C141.788396,123.188728 152.811304,110.074245 160.8,110.074245" id="403_路径-62" stroke="#3484FE" stroke-width="3" stroke-linecap="round" stroke-linejoin="round" />
                                <line x1="114.5" y1="133.5" x2="151.548381" y2="97.2756179" id="403_路径-63" stroke="#3484FE" stroke-width="3" stroke-linecap="round" stroke-linejoin="round" />
                            </g>
                            <path d="M100,199 C100,208.746774 104.436151,213.620161 113.308454,213.620161" id="403_路径-64备份-2" stroke="#B9CEEF" />
                            <path d="M88,203 C88,207.666667 90,210 94,210" id="403_路径-64备份-3" stroke="#B9CEEF" />
                        </g>
                    </g>
                    <path d="M494.26,640 L494.26,596.06 L515.58,596.06 L515.58,560.7 L494.26,560.7 L494.26,451.24 L437.06,451.24 L369.72,563.82 L369.72,596.06 L451.1,596.06 L451.1,640 L494.26,640 Z M451.1,560.7 L413.92,560.7 L436.02,522.74 C441.48,511.56 446.68,500.9 451.62,489.98 L452.66,489.98 C452.14,502.2 451.1,520.92 451.1,533.14 L451.1,560.7 Z M601.64,643.64 C642.46,643.64 670.02,609.32 670.02,544.84 C670.02,480.62 642.46,447.6 601.64,447.6 C560.56,447.6 533,480.36 533,544.84 C533,609.32 560.56,643.64 601.64,643.64 Z M601.64,607.76 C587.86,607.76 576.68,595.8 576.68,544.84 C576.68,493.88 587.86,483.48 601.64,483.48 C615.42,483.48 626.34,493.88 626.34,544.84 C626.34,595.8 615.42,607.76 601.64,607.76 Z M753.22,643.64 C791.7,643.64 824.72,623.88 824.72,588.52 C824.72,564.34 808.86,549 787.54,542.76 L787.54,541.46 C807.82,532.88 818.48,518.84 818.48,499.86 C818.48,466.58 792.22,447.6 752.18,447.6 C729.3,447.6 710.06,456.96 692.12,471.78 L715.52,500.12 C727.22,489.72 737.1,483.74 750.1,483.74 C764.4,483.74 772.2,490.76 772.2,503.5 C772.2,517.54 761.8,527.42 728.78,527.42 L728.78,560.18 C769.34,560.18 778.18,569.54 778.18,585.4 C778.18,598.92 766.48,606.2 748.54,606.2 C733.46,606.2 719.94,598.4 708.24,587.48 L686.92,616.6 C700.96,632.98 722.54,643.64 753.22,643.64 Z" id="403_403" fill="#C7D9FC" fill-rule="nonzero" />
                    <g id="403_编组备份-27" transform="translate(252.000000, 622.000000)" fill-rule="nonzero">
                        <polygon id="403_路径" fill="#B3CCFF" points="16 48 28 48 28 68 16 68" />
                        <polygon id="403_路径" fill="#A8C4FC" points="23.0004343 52 46 52 34.5006514 31.999564 23.0004343 12 11.5002171 31.999564 0 52" />
                        <polygon id="403_路径" fill="#B9D1FF" points="22 42 42 42 32 25 22 8 12 25 2 42" />
                        <polygon id="403_路径" fill="#CADDFD" points="23 30 40 30 31.5 14.9995694 23 0 14.5 14.9995694 6 30" />
                    </g>
                    <g id="403_编组备份-28" opacity="0.576892671" transform="translate(880.000000, 518.000000)" fill-rule="nonzero">
                        <polygon id="403_路径" fill="#B3CCFF" points="16 48 28 48 28 68 16 68" />
                        <polygon id="403_路径" fill="#A8C4FC" points="23.0004343 52 46 52 34.5006514 31.999564 23.0004343 12 11.5002171 31.999564 0 52" />
                        <polygon id="403_路径" fill="#B9D1FF" points="22 42 42 42 32 25 22 8 12 25 2 42" />
                        <polygon id="403_路径" fill="#CADDFD" points="23 30 40 30 31.5 14.9995694 23 0 14.5 14.9995694 6 30" />
                    </g>
                </g>
            </g>
        </g>
    </g>
</symbol><linearGradient x1="50%" y1="0%" x2="50%" y2="86.0706991%" id="403_linearGradient-1">
            <stop stop-color="#D2DEFB" offset="0%" />
            <stop stop-color="#F3F4F8" offset="100%" />
        </linearGradient><linearGradient x1="50%" y1="0%" x2="50%" y2="43.9096274%" id="403_linearGradient-2">
            <stop stop-color="#E5ECF8" offset="0%" />
            <stop stop-color="#F3F4F6" offset="100%" />
        </linearGradient><linearGradient x1="50%" y1="0%" x2="50%" y2="86.0706991%" id="403_linearGradient-3">
            <stop stop-color="#D8E3FB" offset="0%" />
            <stop stop-color="#F3F4F8" offset="100%" />
        </linearGradient><linearGradient x1="50%" y1="0%" x2="50%" y2="43.9096274%" id="403_linearGradient-4">
            <stop stop-color="#E5ECF8" offset="0%" />
            <stop stop-color="#F3F4F6" offset="100%" />
        </linearGradient><linearGradient x1="50%" y1="0%" x2="50%" y2="100%" id="403_linearGradient-5">
            <stop stop-color="#D4E0FC" offset="0%" />
            <stop stop-color="#E0E8FE" offset="100%" />
        </linearGradient><linearGradient x1="50%" y1="0%" x2="50%" y2="100%" id="403_linearGradient-6">
            <stop stop-color="#D4E0FC" offset="0%" />
            <stop stop-color="#E0E8FE" offset="100%" />
        </linearGradient><linearGradient x1="50%" y1="0%" x2="50%" y2="86.0706991%" id="403_linearGradient-7">
            <stop stop-color="#D2DEFB" offset="0%" />
            <stop stop-color="#F3F4F8" offset="100%" />
        </linearGradient><linearGradient x1="50%" y1="0%" x2="50%" y2="43.9096274%" id="403_linearGradient-8">
            <stop stop-color="#E5ECF8" offset="0%" />
            <stop stop-color="#F3F4F6" offset="100%" />
        </linearGradient><linearGradient x1="50%" y1="0%" x2="50%" y2="88.0272486%" id="403_linearGradient-9">
            <stop stop-color="#D0DDFC" offset="0%" />
            <stop stop-color="#F3F4F8" offset="100%" />
        </linearGradient><linearGradient x1="50%" y1="0%" x2="50%" y2="100%" id="403_linearGradient-10">
            <stop stop-color="#E8EDF8" offset="0%" />
            <stop stop-color="#F4F5F6" offset="100%" />
        </linearGradient><linearGradient x1="50%" y1="0%" x2="50%" y2="88.0272486%" id="403_linearGradient-11">
            <stop stop-color="#D0DDFC" offset="0%" />
            <stop stop-color="#F3F4F8" offset="100%" />
        </linearGradient><linearGradient x1="50%" y1="0%" x2="50%" y2="100%" id="403_linearGradient-12">
            <stop stop-color="#E8EDF8" offset="0%" />
            <stop stop-color="#F4F5F6" offset="100%" />
        </linearGradient><linearGradient x1="50%" y1="0%" x2="50%" y2="100%" id="403_linearGradient-13">
            <stop stop-color="#D1DFFC" offset="0%" />
            <stop stop-color="#EAEFF9" offset="100%" />
        </linearGradient><linearGradient x1="50%" y1="0%" x2="50%" y2="100%" id="403_linearGradient-14">
            <stop stop-color="#E6EDF8" offset="0%" />
            <stop stop-color="#F1F2F6" offset="100%" />
        </linearGradient><linearGradient x1="51.503123%" y1="45.4855527%" x2="50%" y2="54.8995405%" id="403_linearGradient-15">
            <stop stop-color="#DBE7FC" offset="0%" />
            <stop stop-color="#F3F5F6" offset="100%" />
        </linearGradient><symbol class="icon" viewBox="0 0 1024 1024" id="clock"><defs><style type="text/css"></style></defs><path d="M511.998946 1024C232.084622 1024 3.063599 793.598251 3.063599 511.998834a509.994215 509.994215 0 0 1 30.203394-173.358151C104.375577 141.616599 292.546218 0 511.998946 0c279.914324 0 508.935347 230.399417 508.935347 511.998834S791.91327 1024 511.998946 1024z m0-73.142357c239.926897 0 436.230297-197.484715 436.230297-438.856477S751.925842 73.142357 511.998946 73.142357 75.768649 270.628238 75.768649 511.998834 272.072049 950.854144 511.998946 950.854144zM548.357301 292.570596v241.370595l3.629072 3.655894L730.114094 716.797668c14.540777 14.628238 14.540777 36.571762 0 51.194169s-36.352525 14.628238-50.893301 0L501.093072 588.798251c-3.634903-3.65706-25.446651-25.600583-25.446651-40.23232V292.570596c0-21.942357 14.540777-36.571762 36.352525-36.571762s36.358356 14.629404 36.358355 36.571762z" p-id="1254" /></symbol><symbol class="icon" viewBox="0 0 1024 1024" id="deletsvg"><defs><style type="text/css"></style></defs><path d="M512 0C229.23 0 0 229.23 0 512s229.23 512 512 512c282.768 0 512-229.23 512-512S794.77 0 512 0z m234.76 656.252c7.808 7.808 7.806 20.472 0.002 28.284l-62.228 62.224c-7.808 7.808-20.47 7.814-28.286 0.002L512 602.51 367.75 746.76c-7.81 7.812-20.474 7.808-28.284 0l-62.226-62.224c-7.81-7.808-7.812-20.472 0-28.284L421.492 512l-144.25-144.25c-7.81-7.808-7.81-20.474 0-28.284l62.226-62.224c7.81-7.812 20.474-7.81 28.284 0L512 421.49l144.252-144.25c7.806-7.812 20.47-7.81 28.282 0l62.226 62.224c7.806 7.812 7.808 20.474 0 28.284L602.51 512l144.25 144.252z" p-id="1168" /></symbol><symbol class="icon" viewBox="0 0 1024 1024" id="example"><defs><style type="text/css"></style></defs><path d="M439.323 775.478c-49.28 0-97.098-9.657-142.126-28.7-43.48-18.389-82.523-44.706-116.044-78.225s-59.841-72.561-78.23-116.04c-19.044-45.027-28.7-92.844-28.7-142.122 0-49.285 9.656-97.105 28.7-142.133 18.388-43.48 44.71-82.52 78.231-116.04C214.673 118.705 253.717 92.387 297.198 74c45.027-19.04 92.846-28.694 142.125-28.694 49.28 0 97.1 9.654 142.127 28.694 43.481 18.386 82.526 44.705 116.045 78.22 33.52 33.52 59.842 72.56 78.23 116.04 19.043 45.028 28.7 92.848 28.7 142.133 0 49.278-9.657 97.095-28.702 142.123-18.388 43.477-44.708 82.52-78.228 116.039S624.93 728.392 581.45 746.78c-45.028 19.043-92.847 28.698-142.128 28.698z m0-676.961c-171.975 0-311.888 139.906-311.888 311.875s139.913 311.874 311.888 311.874 311.888-139.908 311.888-311.874S611.3 98.517 439.323 98.517z m451.355 846.218c-22.122 0-42.904-8.562-58.541-24.116L674.673 767.975l37.039-38.206L869.6 882.828c5.607 5.606 13.092 8.693 21.078 8.693 7.983 0 15.465-3.088 21.07-8.691 5.617-5.622 8.717-13.127 8.717-21.123 0-7.981-3.092-15.463-8.703-21.068l-0.302-0.307-152.746-157.563 38.208-37.035L949.534 803.16c15.571 15.638 24.145 36.423 24.145 58.55 0 22.195-8.626 43.054-24.287 58.736-15.669 15.665-36.515 24.288-58.714 24.288z" fill="" p-id="782" /><path d="M281.015 568.755c-42.34-42.321-65.652-98.585-65.643-158.421 0.008-59.819 23.319-116.075 65.637-158.408l37.635 37.62c-66.607 66.629-66.61 175-0.007 241.577l-37.622 37.632z" fill="" p-id="783" /></symbol><symbol class="icon" viewBox="0 0 1024 1024" id="eye"><defs><style type="text/css"></style></defs><path d="M512 116.363636C265.309091 116.363636 55.854545 262.981818 0 507.345455v11.636363C55.854545 761.018182 265.309091 907.636364 512 907.636364s456.145455-146.618182 512-390.981819v-11.636363C968.145455 262.981818 758.690909 116.363636 512 116.363636z m0 744.727273c-223.418182 0-414.254545-130.327273-465.454545-349.090909C97.745455 293.236364 288.581818 162.909091 512 162.909091s414.254545 130.327273 465.454545 349.090909c-51.2 218.763636-242.036364 349.090909-465.454545 349.090909z m0-535.272727c-102.4 0-186.181818 83.781818-186.181818 186.181818s83.781818 186.181818 186.181818 186.181818 186.181818-83.781818 186.181818-186.181818-83.781818-186.181818-186.181818-186.181818z m0 325.818182c-76.8 0-139.636364-62.836364-139.636364-139.636364s62.836364-139.636364 139.636364-139.636364 139.636364 62.836364 139.636364 139.636364-62.836364 139.636364-139.636364 139.636364z" fill="#666666" p-id="3032" /></symbol><symbol class="icon" viewBox="0 0 1024 1024" id="eyehidden"><defs><style type="text/css"></style></defs><path d="M925.781333 379.733333l60.373334 60.330667a637.994667 637.994667 0 0 1-452.565334 187.477333 637.994667 637.994667 0 0 1-452.48-187.434666l60.330667-60.330667a552.96 552.96 0 0 0 392.149333 162.432c153.173333 0 291.84-62.08 392.192-162.474667z" fill="#444444" p-id="3907" /><path d="M127.99307 366.325395l60.339779 60.339779-60.339779 60.339778L67.653291 426.665174z" fill="#444444" p-id="3908" /><path d="M192.914258 501.311099l65.369126 54.851209-109.702419 130.738252L83.211839 632.049351z" fill="#444444" p-id="3909" /><path d="M391.512277 565.33021l80.187103 29.185719-58.371438 160.374207L333.140839 725.704417z" fill="#444444" p-id="3910" /><path d="M570.716052 592.382238l80.187104-29.185719 58.371438 160.374207L629.08749 752.756445z" fill="#444444" p-id="3911" /><path d="M765.839382 556.179743l65.369126-54.85121 109.702419 130.738252L875.541801 686.917994z" fill="#444444" p-id="3912" /><path d="M938.689036 366.337531l60.339779 60.339779-60.339779 60.339779L878.349258 426.67731z" fill="#444444" p-id="3913" /></symbol><symbol class="icon" viewBox="0 0 1942 1024" id="listicon"><defs><style type="text/css"></style></defs><path d="M908.086407 767.472434H523.838154c-17.908128 0-32.74529-6.139429-45.0254-18.419538-12.280109-12.278859-18.419538-27.117272-18.419538-45.024149 0-17.908128 6.139429-32.746541 18.419538-45.536811 12.280109-12.79152 27.117272-18.930949 45.0254-18.930949h384.248253c17.908128 0 32.74529 6.139429 45.53681 18.930949 12.79152 12.790269 18.930949 27.628683 18.930949 45.536811 0 12.790269-3.581125 25.070379-11.256037 35.815005l140.191556-145.308165V255.822894H952.088985c-18.930949 0-35.304845-4.092536-49.119186-12.790269-13.814341-8.698984-24.558968-18.930949-33.256701-31.722469-8.697733-12.79152-14.838413-26.605861-18.930949-41.444274-4.093787-14.837163-6.139429-29.164165-6.13943-41.954435V-0.00125h-392.435826c-15.861235 0-30.698397 4.093787-45.025399 12.791519-14.325752 8.697733-27.117272 19.44236-38.37331 32.23388-11.256037 12.79152-19.953771 26.605861-26.605861 42.467096-6.65084 15.861235-9.720555 30.698397-9.720554 45.024149v696.355085c0 16.884056 4.603947 33.769362 13.30168 49.630597 8.698984 15.861235 19.955021 30.186986 33.257951 42.465845 13.302931 12.278859 27.628683 22.000664 42.978507 29.675576 15.349824 7.674912 29.675576 11.256037 42.467095 11.256037H747.428419l198.519886-206.706209c-10.233216 8.187573-23.023485 12.280109-37.861898 12.280109z m-429.273653-364.805893c12.280109-12.79152 27.117272-18.930949 45.0254-18.930949h384.248253c17.908128 0 32.74529 6.139429 45.53681 18.930949s18.930949 27.628683 18.930949 45.53681-6.139429 32.74529-18.930949 45.0254c-12.79152 12.280109-27.628683 18.419538-45.53681 18.419538H523.838154c-17.908128 0-32.74529-6.139429-45.0254-18.419538-12.280109-12.280109-18.419538-27.117272-18.419538-45.0254s6.139429-32.74529 18.419538-45.53681z" p-id="2769" /><path d="M919.342444 164.749274c3.582376 6.65209 7.674912 12.79152 12.79152 17.908128 5.116608 5.116608 11.256037 7.674912 18.930949 7.674911h150.424772v-16.372645c0-4.093787-0.511411-8.697733-2.045643-14.325752-1.535483-5.629269-5.116608-12.280109-10.744626-19.955021-5.629269-7.674912-14.327002-17.395467-25.071629-28.652754-10.744627-11.256037-25.581789-25.070379-44.001328-41.443024-16.885306-14.838413-31.211058-27.117272-42.467095-36.327666-11.256037-9.209144-20.977842-16.372645-28.652755-21.489253-7.674912-5.115358-14.325752-8.186323-19.95377-9.720555-5.628019-1.535483-11.256037-2.046893-17.396717-2.046893h-2.045643v125.865804c0 4.605197 1.022821 10.744627 2.558304 17.908128 1.534232 7.162251 4.092536 14.325752 7.673661 20.976592zM1019.626459 785.891973c-12.280109 12.280109-24.558968 24.558968-36.839077 37.350487-12.280109 12.79152-23.536146 24.047557-33.769362 34.280773l-25.581789 25.58179-13.302931 13.30293c-6.65209 6.65209-12.280109 14.838413-16.372645 23.536147-1.535483 2.558304-3.069715 7.674912-5.628019 15.349823-2.558304 7.674912-5.116608 15.349824-7.674912 24.047558-2.558304 8.697733-5.116608 16.884056-7.163501 25.070378-2.046893 8.186323-3.581125 14.325752-4.092536 18.419539-1.535483 8.186323-0.512661 13.814341 2.045643 17.395466 2.558304 3.581125 8.186323 4.605197 16.373896 3.069715 4.092536-0.511411 10.231965-2.046893 18.418288-4.093787 8.186323-2.046893 16.885306-4.605197 25.583039-7.163501 8.697733-2.558304 17.395467-5.628019 26.094451-8.697733 8.697733-3.069715 14.837163-5.628019 18.930949-7.674912 4.092536-2.046893 8.186323-4.605197 12.278859-7.674912 4.093787-3.069715 7.674912-6.139429 11.257287-8.697733 0.511411-0.511411 4.092536-4.605197 10.744627-11.256038 6.65084-6.65209 14.325752-14.837163 24.047557-24.558967l33.768112-33.769363 36.839077-36.837826 99.259943-99.259943-85.957013-85.958263c-36.839077 35.817506-70.095778 68.562796-99.259943 98.238372zM1269.822585 672.306278c-4.092536-9.721805-10.233216-18.419538-17.908127-27.117272-7.673662-8.698984-15.348573-14.327002-22.000664-17.908128-6.139429-3.581125-13.814341-5.628019-23.536147-6.652091-9.720555-1.022821-18.418288 2.046893-26.605861 9.721806-3.581125 2.558304-7.673662 6.65209-12.790269 11.256037a1335.097065 1335.097065 0 0 1-13.814342 12.280109l86.979834 85.957013c2.046893-1.535483 4.605197-3.581125 7.163502-6.13943 2.045643-2.046893 4.603947-4.605197 7.16225-7.674912s5.628019-6.14068 9.210395-9.721805c7.674912-7.674912 10.744627-15.349824 10.233216-23.536146-1.024072-8.186323-2.046893-15.348573-4.093787-20.465181z" p-id="2770" /></symbol><symbol class="icon" viewBox="0 0 1024 1024" id="password"><defs><style type="text/css"></style></defs><path d="M387.698 459c37.257 19.176 79.515 30 124.302 30 44.787 0 87.045-10.824 124.302-30H819v352c0 17.673-14.327 32-32 32H205V491c0-17.673 14.327-32 32-32h150.698zM256 395c0-141.385 114.615-256 256-256s256 114.615 256 256h-96c0-88.366-71.634-160-160-160s-160 71.634-160 160h-96z" p-id="2881" /></symbol><symbol class="icon" viewBox="0 0 1024 1024" id="seaech"><defs><style type="text/css"></style></defs><path d="M614.942358 923.828765H192.030607c-24.756691 0-48.549619-10.119523-66.078079-28.250337-17.468225-18.070578-27.346807-42.646563-27.286572-68.186312V167.454621c0-25.599985 9.818347-50.115735 27.286572-68.246548 17.52846-18.070578 41.321387-28.310572 66.078079-28.310571h639.276801c24.756691 0 48.549619 10.179759 66.078078 28.310571 17.648931 18.191048 27.286572 42.405622 27.286573 68.186313l-1.445647 436.464685v0.12047a34.996685 34.996685 0 0 0 34.334098 35.237627c18.913871 0 34.334097-15.661167 34.575038-35.117156l1.385411-436.52492V167.454621c0-44.453621-17.046578-87.039949-47.465384-118.482753A159.623436 159.623436 0 0 0 831.307408 0.000602H192.030607c-43.007975 0-84.329362 17.588696-114.748168 49.031501a170.044135 170.044135 0 0 0-47.405148 118.482754v659.877259c-0.060235 44.393386 16.986343 87.039949 47.405148 118.422518 30.418806 31.442805 71.679958 49.091736 114.748168 49.031501h422.851516a34.93645 34.93645 0 0 0 34.454568-35.538803 34.93645 34.93645 0 0 0-34.394333-35.478567z" fill="#666666" p-id="2157" /><path d="M983.582142 934.249465l-131.312864-135.529332c62.283257-90.413123 47.103972-215.039874-34.996686-286.719832a202.089293 202.089293 0 0 0-279.732541 12.047052c-76.016896 78.486542-81.076658 204.016821-11.68564 288.76783 69.451253 84.751009 190.162712 100.412176 277.744778 36.141155l131.312864 135.529332c13.432463 13.854109 35.237626 13.854109 48.670089 0a36.321861 36.321861 0 0 0 0-50.236205z m-299.670412-116.856402c-65.656432 0-122.277575-47.947266-135.04745-114.446992-12.83011-66.559961 21.684693-133.119922 82.401834-159.081318 60.656905-25.961396 130.710511-4.035762 167.152842 52.34444a145.58862 145.58862 0 0 1-17.106813 179.501071 134.686038 134.686038 0 0 1-97.400413 41.622563z m103.303468-497.302296c18.974106 0 34.334097-15.962344 34.334098-35.538803a35.056921 35.056921 0 0 0-34.334098-35.659273L236.423993 248.711985a34.996685 34.996685 0 0 0-34.394333 35.538803c0 19.636694 15.359991 35.659273 34.334098 35.659273l550.791205 0.180706zM442.970695 533.082642a34.213627 34.213627 0 0 0 29.816453-17.769402 36.502567 36.502567 0 0 0 0-35.478567 34.213627 34.213627 0 0 0-29.816453-17.769401H236.484228a34.93645 34.93645 0 0 0-34.334097 35.538802 34.93645 34.93645 0 0 0 34.334097 35.418332l206.486467 0.060236z m-206.486467 141.974504a34.93645 34.93645 0 0 0-34.334097 35.538803c0 19.576459 15.359991 35.478567 34.334097 35.478567h137.697801a34.153392 34.153392 0 0 0 30.057395-17.588695 36.442332 36.442332 0 0 0 0-35.719509 34.153392 34.153392 0 0 0-30.11763-17.588695l-137.637566-0.120471z" fill="#666666" p-id="2158" /></symbol><symbol class="icon" viewBox="0 0 1024 1024" id="user"><defs><style type="text/css"></style></defs><path d="M511.533884 586.325799c144.208403 0 261.130346-116.903523 261.130346-261.129322 0-144.220682-116.921943-261.123182-261.130346-261.123182-144.20124 0-261.123182 116.903523-261.123182 261.123182C250.410702 469.422276 367.331621 586.325799 511.533884 586.325799L511.533884 586.325799zM720.802048 563.511187c-55.834656 49.040926-129.029702 78.784344-209.182206 78.784344-80.147388 0-153.340387-29.743418-209.176067-78.784344C160.564417 638.623909 63.890634 787.730878 63.890634 959.440635l895.463532 0C959.355189 787.730878 862.676289 638.623909 720.802048 563.511187L720.802048 563.511187zM720.675158 563.511187" p-id="2065" /></symbol></defs></svg>